<?xml version="1.0" encoding="UTF-8" standalone="no"?>
<!-- Created with Inkscape (http://www.inkscape.org/) -->

<svg
   width="9.5in"
   height="4.125in"
   viewBox="0 0 241.3 104.775"
   version="1.1"
   id="svg5"
   inkscape:version="1.1.1 (3bf5ae0d25, 2021-09-20)"
   sodipodi:docname="Logo_PL_color_blackless.svg"
   xmlns:inkscape="http://www.inkscape.org/namespaces/inkscape"
   xmlns:sodipodi="http://sodipodi.sourceforge.net/DTD/sodipodi-0.dtd"
   xmlns="http://www.w3.org/2000/svg"
   xmlns:svg="http://www.w3.org/2000/svg">
  <sodipodi:namedview
     id="namedview7"
     pagecolor="#ffffff"
     bordercolor="#666666"
     borderopacity="1.0"
     inkscape:pageshadow="2"
     inkscape:pageopacity="0.0"
     inkscape:pagecheckerboard="0"
     inkscape:document-units="mm"
     showgrid="false"
     units="in"
     inkscape:zoom="1.0482005"
     inkscape:cx="602.46107"
     inkscape:cy="191.2802"
     inkscape:window-width="1920"
     inkscape:window-height="1017"
     inkscape:window-x="-8"
     inkscape:window-y="-8"
     inkscape:window-maximized="1"
     inkscape:current-layer="layer101"
     showborder="false"
     inkscape:showpageshadow="true"
     borderlayer="false"
     showguides="false" />
  <defs
     id="defs2">
    <inkscape:path-effect
       effect="dashed_stroke"
       id="path-effect21166"
       is_visible="false"
       lpeversion="1"
       numberdashes="2"
       holefactor="0.99999"
       splitsegments="true"
       halfextreme="true"
       unifysegment="true"
       message="Dodaj &lt;b&gt;&quot;Wypełnij między wieloma LPE&quot;&lt;/b&gt; , aby dodać wypełnienie." />
  </defs>
  <g
     inkscape:label="Warstwa 1"
     inkscape:groupmode="layer"
     id="layer1">
    <g
       id="layer101"
       style="fill:#280b0b"
       transform="matrix(0.17538106,0,0,0.17538106,16.784589,-54.112926)">
      <path
         style="fill:#ffffff;fill-rule:evenodd;stroke-width:0.826876"
         inkscape:path-effect="#path-effect21166"
         inkscape:original-d="m 537.07199,462.3351 -37.27712,21.52193 v 229.84673 l 99.52535,57.46168 99.52738,-57.46168 v -87.27741 l -38.30779,22.11676 v 43.04202 l -61.21959,35.34492 -61.21756,-35.34492 V 505.9738 l 37.27712,-21.52194 z"
         d="m 537.07199,462.3351 -37.27712,21.52193 v 229.84673 l 99.52535,57.46168 99.52738,-57.46168 v -87.27741 l -38.30779,22.11676 v 43.04202 l -61.21959,35.34492 -61.21756,-35.34492 V 505.9738 l 37.27712,-21.52194 z"
         id="path853" />
      <path
         style="fill:#ffffff;fill-rule:evenodd;stroke-width:0.826876"
         inkscape:path-effect="#path-effect21166"
         inkscape:original-d="m 698.8476,368.93368 -75.58309,43.6387 38.30588,22.11676 37.27721,-21.52195 61.21766,35.34493 v 70.68797 c -59.63862,34.43354 -101.33367,58.50561 -160.74504,92.8066 l -37.27519,-21.52195 v 44.2354 l 37.27519,21.52194 C 665.9075,617.79836 736.68927,576.9323 798.37305,541.31871 V 426.39535 Z"
         d="m 698.8476,368.93368 -75.58309,43.6387 38.30588,22.11676 37.27721,-21.52195 61.21766,35.34493 v 70.68797 c -59.63862,34.43354 -101.33367,58.50561 -160.74504,92.8066 l -37.27519,-21.52195 v 44.2354 l 37.27519,21.52194 C 665.9075,617.79836 736.68927,576.9323 798.37305,541.31871 V 426.39535 Z"
         id="path851" />
      <path
         style="fill:#ffffff;fill-rule:evenodd;stroke-width:0.826876"
         inkscape:path-effect="#path-effect21166"
         inkscape:original-d="m 499.79487,368.93368 -99.52737,57.46167 v 114.92336 l 75.585,43.63871 v -44.23539 l -37.27721,-21.52194 v -70.68797 l 61.21958,-35.34493 c 54.58323,31.51232 111.82551,64.56345 160.74494,92.80661 v 43.04201 L 698.8476,526.89905 V 483.85703 C 632.51,445.55635 563.36205,405.63374 499.79487,368.93368 Z"
         d="m 499.79487,368.93368 -99.52737,57.46167 v 114.92336 l 75.585,43.63871 v -44.23539 l -37.27721,-21.52194 v -70.68797 l 61.21958,-35.34493 c 54.58323,31.51232 111.82551,64.56345 160.74494,92.80661 v 43.04201 L 698.8476,526.89905 V 483.85703 C 632.51,445.55635 563.36205,405.63374 499.79487,368.93368 Z"
         id="path849" />
      <g
         id="g7135"
         style="fill:#dc143c;fill-opacity:1">
        <path
           style="fill:#dc143c;fill-opacity:1;stroke:none;stroke-width:1.50862px;stroke-linecap:butt;stroke-linejoin:miter;stroke-opacity:1"
           d="m 414.736,648.97377 v 28.50934 l -234.13356,0.48743 -66.15061,-37.65495 -43.922308,-71.26694 z"
           id="path3637" />
        <path
           id="path1923"
           style="fill:#dc143c;fill-opacity:1;fill-rule:evenodd;stroke-width:0.548101"
           d="m 107.94141,45.130859 v 29.320313 22.353516 l 22.92968,38.451172 222.59571,80.95117 v 0.002 76.17579 c 36.40124,21.0156 74.50242,43.01446 107.23437,61.91211 36.75987,-21.22315 73.40582,-42.38027 107.23633,-61.91211 v -76.17579 -0.002 L 790.5332,135.25586 813.46289,96.804688 V 74.451172 45.130859 l -81.8418,47.251953 -81.84179,47.251958 -81.8418,47.25195 c -8.02051,4.63075 -17.44105,10.06911 -25.39258,14.66016 v 76.17773 c -27.99579,16.16166 -55.24562,31.89684 -81.84375,47.25195 -27.84813,-16.07659 -57.01278,-32.91793 -81.84179,-47.25195 v -76.17773 c -8.61995,-4.97676 -16.72335,-9.65499 -25.39258,-14.66016 L 271.625,139.63477 189.7832,92.382812 Z"
           transform="matrix(1.5086198,0,0,1.5086198,-95.703544,308.54487)" />
        <path
           style="fill:#dc143c;fill-opacity:1;stroke:none;stroke-width:1.50862px;stroke-linecap:butt;stroke-linejoin:miter;stroke-opacity:1"
           d="m 414.736,691.7378 -251.94335,41.18862 38.67267,32.0576 62.58864,10.68587 150.68204,-61.1246 z"
           id="path3705" />
        <path
           style="fill:#dc143c;fill-opacity:1;stroke:none;stroke-width:1.50862px;stroke-linecap:butt;stroke-linejoin:miter;stroke-opacity:1"
           d="m 414.736,728.8 -116.12566,92.99682 51.13318,-10.235 35.62137,-21.58871 29.37111,-44.06752 z"
           id="path3942"
           sodipodi:nodetypes="cccccc" />
        <path
           style="fill:#dc143c;fill-opacity:1;stroke:none;stroke-width:1.50862px;stroke-linecap:butt;stroke-linejoin:miter;stroke-opacity:1"
           d="m 426.13975,769.39421 -17.82659,45.20276 32.64047,-36.64997 -14.81388,-8.55279"
           id="path4139" />
        <path
           style="fill:#dc143c;fill-opacity:1;stroke:none;stroke-width:1.50862px;stroke-linecap:butt;stroke-linejoin:miter;stroke-opacity:1"
           d="m 453.29856,785.07436 -5.68623,19.29123 15.56217,-13.58936 -9.87594,-5.70187"
           id="path4426" />
        <path
           style="fill:#dc143c;fill-opacity:1;stroke:none;stroke-width:1.50862px;stroke-linecap:butt;stroke-linejoin:miter;stroke-opacity:1"
           d="m 783.90568,648.97378 v 28.5093 l 234.13352,0.4874 66.1506,-37.6549 43.9224,-71.267 z"
           id="path5329" />
        <path
           style="fill:#dc143c;fill-opacity:1;stroke:none;stroke-width:1.50862px;stroke-linecap:butt;stroke-linejoin:miter;stroke-opacity:1"
           d="m 783.90568,691.73778 251.94332,41.1886 -38.67264,32.0576 -62.58864,10.6859 -150.68204,-61.1246 z"
           id="path5331" />
        <path
           style="fill:#dc143c;fill-opacity:1;stroke:none;stroke-width:1.50862px;stroke-linecap:butt;stroke-linejoin:miter;stroke-opacity:1"
           d="m 772.50193,769.39418 17.82659,45.2028 -32.64047,-36.65 14.81388,-8.5528"
           id="path5335" />
        <path
           style="fill:#dc143c;fill-opacity:1;stroke:none;stroke-width:1.50862px;stroke-linecap:butt;stroke-linejoin:miter;stroke-opacity:1"
           d="m 745.34312,785.07438 5.68623,19.2912 -15.56217,-13.5894 9.87594,-5.7018"
           id="path5337" />
        <path
           style="fill:#dc143c;fill-opacity:1;stroke:none;stroke-width:1.50862px;stroke-linecap:butt;stroke-linejoin:miter;stroke-opacity:1"
           d="m 783.90569,728.79999 116.12566,92.99682 -51.13318,-10.235 -35.62137,-21.58871 -29.37111,-44.06752 z"
           id="path6820"
           sodipodi:nodetypes="cccccc" />
      </g>
    </g>
  </g>
  <style
     type="text/css"
     id="style2">
	.st0{fill:#FFFFFF;}
</style>
  <style
     type="text/css"
     id="style2-1">
	.st0{fill:#FFFFFF;}
</style>
  <style
     type="text/css"
     id="style10405">
	.st0{fill:#FFFFFF;}
</style>
  <style
     type="text/css"
     id="style12632">
	.st0{fill:#FFFFFF;}
</style>
  <style
     type="text/css"
     id="style12764">
	.st0{fill:#FFFFFF;}
</style>
</svg>
