<?xml version="1.0" encoding="UTF-8" standalone="no"?>
<!-- Created with Inkscape (http://www.inkscape.org/) -->

<svg
   width="9.5in"
   height="4.125in"
   viewBox="0 0 241.3 104.775"
   version="1.1"
   id="svg5"
   inkscape:version="1.1.1 (3bf5ae0d25, 2021-09-20)"
   sodipodi:docname="logo_FIXED.svg"
   xmlns:inkscape="http://www.inkscape.org/namespaces/inkscape"
   xmlns:sodipodi="http://sodipodi.sourceforge.net/DTD/sodipodi-0.dtd"
   xmlns="http://www.w3.org/2000/svg"
   xmlns:svg="http://www.w3.org/2000/svg">
  <sodipodi:namedview
     id="namedview7"
     pagecolor="#ffffff"
     bordercolor="#666666"
     borderopacity="1.0"
     inkscape:pageshadow="2"
     inkscape:pageopacity="0.0"
     inkscape:pagecheckerboard="0"
     inkscape:document-units="mm"
     showgrid="false"
     units="in"
     inkscape:zoom="0.52410025"
     inkscape:cx="854.7983"
     inkscape:cy="373.02024"
     inkscape:window-width="1920"
     inkscape:window-height="1017"
     inkscape:window-x="-8"
     inkscape:window-y="-8"
     inkscape:window-maximized="1"
     inkscape:current-layer="layer1" />
  <defs
     id="defs2">
    <inkscape:path-effect
       effect="dashed_stroke"
       id="path-effect21166"
       is_visible="false"
       lpeversion="1"
       numberdashes="2"
       holefactor="0.99999"
       splitsegments="true"
       halfextreme="true"
       unifysegment="true"
       message="Dodaj &lt;b&gt;&quot;Wypełnij między wieloma LPE&quot;&lt;/b&gt; , aby dodać wypełnienie." />
  </defs>
  <g
     inkscape:label="Warstwa 1"
     inkscape:groupmode="layer"
     id="layer1">
    <g
       id="layer101"
       style="fill:#280b0b"
       transform="matrix(0.17538106,0,0,0.17538106,16.784589,-54.112926)">
	
	
	
	
	
	
	
	
<path
   id="path21064"
   style="fill:#000000;fill-rule:evenodd;stroke-width:0.826876"
   d="M 12.375007,345.01562 140.94744,531.80163 437.54281,634.722 v 114.9215 c 54.91564,31.70455 112.39734,64.8921 161.77741,93.40142 55.45666,-32.01761 110.74016,-63.93529 161.77753,-93.40142 V 634.722 L 1057.6931,531.80163 1186.2655,345.01562 C 1020.4302,440.76403 867.92495,528.80607 722.78996,612.60338 v 114.92337 c -42.235,24.3818 -83.34328,48.11962 -123.46974,71.28465 -42.01224,-24.25347 -86.01209,-49.66007 -123.46963,-71.28465 V 612.60338 C 318.51572,521.76564 154.5648,427.10913 12.375007,345.01562 Z m 487.419863,23.91806 -99.52737,57.46167 v 114.92336 l 75.585,43.63871 v -44.23539 l -37.27721,-21.52194 v -70.68797 l 61.21958,-35.34493 c 54.58323,31.51232 111.82551,64.56345 160.74494,92.80661 v 43.04201 L 698.8476,526.89905 V 483.85703 C 632.51,445.55635 563.36205,405.63374 499.79487,368.93368 Z m 199.05273,0 -75.58309,43.6387 38.30588,22.11676 37.27721,-21.52195 61.21766,35.34493 v 70.68797 c -59.63862,34.43354 -101.33367,58.50561 -160.74504,92.8066 l -37.27519,-21.52195 v 44.2354 l 37.27519,21.52194 C 665.9075,617.79836 736.68927,576.9323 798.37305,541.31871 V 426.39535 Z m -161.77561,93.40142 -37.27712,21.52193 v 229.84673 l 99.52535,57.46168 99.52738,-57.46168 v -87.27741 l -38.30779,22.11676 v 43.04202 l -61.21959,35.34492 -61.21756,-35.34492 V 505.9738 l 37.27712,-21.52194 z m -347.16432,140.59407 61.39158,89.18719 162.30119,-9.50962 V 653.8759 Z m 818.82523,0 -223.69278,50.94673 v 28.73084 l 162.30119,9.50962 z m -595.13246,106.2031 -135.33424,22.16165 36.62062,53.20069 98.71362,-34.85111 z m 371.43968,0 v 40.51123 l 98.71361,34.85111 36.62062,-53.20069 z"
   inkscape:original-d="M 12.375007,345.01562 140.94744,531.80163 437.54281,634.722 v 114.9215 c 54.91564,31.70455 112.39734,64.8921 161.77741,93.40142 55.45666,-32.01761 110.74016,-63.93529 161.77753,-93.40142 V 634.722 L 1057.6931,531.80163 1186.2655,345.01562 C 1020.4302,440.76403 867.92495,528.80607 722.78996,612.60338 v 114.92337 c -42.235,24.3818 -83.34328,48.11962 -123.46974,71.28465 -42.01224,-24.25347 -86.01209,-49.66007 -123.46963,-71.28465 V 612.60338 C 318.51572,521.76564 154.5648,427.10913 12.375007,345.01562 Z m 487.419863,23.91806 -99.52737,57.46167 v 114.92336 l 75.585,43.63871 v -44.23539 l -37.27721,-21.52194 v -70.68797 l 61.21958,-35.34493 c 54.58323,31.51232 111.82551,64.56345 160.74494,92.80661 v 43.04201 L 698.8476,526.89905 V 483.85703 C 632.51,445.55635 563.36205,405.63374 499.79487,368.93368 Z m 199.05273,0 -75.58309,43.6387 38.30588,22.11676 37.27721,-21.52195 61.21766,35.34493 v 70.68797 c -59.63862,34.43354 -101.33367,58.50561 -160.74504,92.8066 l -37.27519,-21.52195 v 44.2354 l 37.27519,21.52194 C 665.9075,617.79836 736.68927,576.9323 798.37305,541.31871 V 426.39535 Z m -161.77561,93.40142 -37.27712,21.52193 v 229.84673 l 99.52535,57.46168 99.52738,-57.46168 v -87.27741 l -38.30779,22.11676 v 43.04202 l -61.21959,35.34492 -61.21756,-35.34492 V 505.9738 l 37.27712,-21.52194 z m -347.16432,140.59407 61.39158,89.18719 162.30119,-9.50962 V 653.8759 Z m 818.82523,0 -223.69278,50.94673 v 28.73084 l 162.30119,9.50962 z m -595.13246,106.2031 -135.33424,22.16165 36.62062,53.20069 98.71362,-34.85111 z m 371.43968,0 v 40.51123 l 98.71361,34.85111 36.62062,-53.20069 z"
   inkscape:path-effect="#path-effect21166" />
</g>
  </g>
  <style
     type="text/css"
     id="style2">
	.st0{fill:#000000;}
</style>
  <style
     type="text/css"
     id="style2-1">
	.st0{fill:#000000;}
</style>
  <style
     type="text/css"
     id="style10405">
	.st0{fill:#000000;}
</style>
  <style
     type="text/css"
     id="style12632">
	.st0{fill:#000000;}
</style>
  <style
     type="text/css"
     id="style12764">
	.st0{fill:#000000;}
</style>
</svg>
